<?xml version="1.0" encoding="UTF-8"?>
<svg xmlns="http://www.w3.org/2000/svg" version="1.1" viewBox="0 0 215.04 181.49">
  <!-- Generator: Adobe Illustrator 29.5.1, SVG Export Plug-In . SVG Version: 2.1.0 Build 141)  -->
  <defs>
    <style>
      .st0 {
        fill: #3a1604;
      }

      .st1 {
        fill: #f2f2f2;
      }

      .st2 {
        fill: #472e1e;
      }

      .st3 {
        display: none;
      }

      .st4 {
        font-family: UrduTypesetting, 'Urdu Typesetting';
        font-size: 250px;
      }

      .st5 {
        font-size: 23.06px;
      }
    </style>
  </defs>
  <g id="Layer_1">
    <g>
      <path class="st2" d="M172.5,9.09c6.52-.18,14.46-5.26,12.86-7-1.6-1.74-8.08-3.54-16.61-.29-10.02,3.83-9.1,14.43-9.1,14.43,0,0,4.59-6.91,12.86-7.14Z"/>
      <path class="st2" d="M173.83,12.79c-6.52.06-14.57,5-13,6.76,1.57,1.76,8,3.69,16.6.59,10.1-3.64,9.4-14.26,9.4-14.26,0,0-4.73,6.83-13,6.91Z"/>
      <path class="st2" d="M38.01,158.64c-5.42-.43-11.76-2.18-20.16-5.65-.27-.11-.44-.18-.68-.29-4.68-2.11-7.78-6-8.65-9.49-1.81-7.19,5.77-12.98,7.15-13.99,8.49-6.22,20.17-5.5,20.06-6.57-.12-1.06-11.69-3.12-21.71.77C3.29,127.6-.71,136.75.1,143.69c.2,1.7.62,4.91,3.46,8.11,9.1,10.25,31.6,8.55,34.59,7.46.37-.14.27-.6-.14-.63Z"/>
      <path class="st2" d="M214.18,31.78c-.57-1.8-1.41-3.39-2.52-4.79-1.1-1.39-2.45-2.5-4.05-3.31-1.6-.82-3.42-1.23-5.46-1.23-2.62,0-5.11.68-7.49,2.03-2.37,1.35-4.68,3.13-6.93,5.34-2.25,2.21-4.38,4.71-6.38,7.49-2.01,2.78-3.93,5.63-5.77,8.53-1.84,2.91-3.6,5.71-5.28,8.41-1.68,2.7-3.25,5.03-4.73,7-1.15,0-2.41-.02-3.81-.06-1.39-.04-2.54-.26-3.44-.68-1.15-.41-1.96-1.04-2.45-1.9s-.86-1.7-1.1-2.52c-.25-.82-.41-1.53-.49-2.15-.08-.61-.25-.92-.49-.92-.66,0-1.47.57-2.45,1.72-.98,1.15-1.96,2.62-2.95,4.42-.98,1.8-1.82,3.85-2.52,6.14-.7,2.29-1.04,4.54-1.04,6.75,0,1.88.1,4.07.31,6.57.2,2.5.43,5.09.68,7.79.25,2.7.47,5.38.68,8.04.2,2.59.32,5.02.31,7.3-.02,2.31-.22,5.41-.98,9.15-1.28,12.93-6.39,20.98-9.21,24.72-3.07,4.07-6.21,6.81-9.2,9.3-4.82,4.01-10.47,8.72-19.29,12.16,0,0-10.16,3.97-25.89,3.95-5.8,0-9.53-.96-11.29-1.47-1.11-.32-2.12-.68-3.07-1.05-4.26-1.68-7.86-4.03-10.8-7.06-2.95-3.03-5.22-6.65-6.81-10.86-1.6-4.21-2.39-8.86-2.39-13.93,0-1.2-.09-5.02.93-11.31,1.98-12.25,5.44-17.84,4.4-18.43-1.36-.77-9.35,7.57-13.06,18.7-1.45,4.34-2.01,8.4-2.64,13.01-.6,4.43-1.23,9-.92,14.48.2,3.48.6,10.61,3.91,17.2,6.3,12.51,20.01,16.89,25.66,18.7,12.2,3.89,22.52,2.26,27.65,1.39,2.09-.36,12.18-2.18,23.47-8.95,2.59-1.56,10.3-6.41,17.88-15.2.07-.08.15-.17.24-.28,0,0,5.69-6.68,10.31-15.6,6.09-11.77,9.09-26.08,9.51-28.14.07-.23.13-.46.2-.69,1.82-6.69,2.61-12.99,2.82-18.61,7.86,0,15.22-1.45,22.09-4.36,6.87-2.9,12.89-6.87,18.04-11.91s9.23-10.9,12.21-17.61c2.99-6.71,4.48-13.91,4.48-21.6,0-1.96-.29-3.85-.86-5.65ZM207,49.7c-1.43,1.23-3.29,2.41-5.58,3.56-2.29,1.15-4.83,2.19-7.61,3.13-2.78.94-5.57,1.78-8.35,2.52-2.78.74-5.36,1.31-7.73,1.72-2.37.41-4.3.61-5.77.61,1.96-4.25,4.21-8.02,6.75-11.29,1.06-1.39,2.23-2.78,3.5-4.17,1.27-1.39,2.64-2.62,4.11-3.68,1.47-1.06,3.03-1.92,4.66-2.58,1.64-.65,3.35-.98,5.16-.98,1.06,0,2.35.14,3.87.43,1.51.29,2.95.74,4.3,1.35,1.35.61,2.5,1.39,3.44,2.33.94.94,1.41,2.07,1.41,3.38,0,1.23-.72,2.45-2.15,3.68Z"/>
      <path class="st2" d="M93.19,80.83c6.55,2.81,9.66,2.68,12.46,6.08,3.55,4.32,3.35,10.37,2.67,14.69,1.09-1.89,1.86-3.59,2.4-5.13-.25,1.82-.72,3.59-1.22,5.16,1.73-1.91,3.06-3.65,4.08-5.23,5.86-6.93,6.38-11.43,5.51-14.38-3.09-10.44-25.48-7.53-31.45-20.79-3.77-8.37-.53-16.21,0-17.99.01-.05.04-.15,0-.18-.38-.27-6.85,5.57-9.16,13.53-.46,1.58-.95,3.19-1.11,4.89-1.35-5.22-.2-10.67,1.04-14.58-2.42,3.69-6.96,11.89-4.15,19.29,2.95,7.77,13.05,12.11,18.94,14.64Z"/>
    </g>
  </g>
  <g id="Layer_2" class="st3">
    <path d="M240.1-133.62c-.57-1.79-1.4-3.38-2.5-4.76-1.1-1.38-2.44-2.48-4.03-3.3-1.59-.81-3.4-1.22-5.43-1.22-2.61,0-5.09.67-7.45,2.01-2.36,1.34-4.66,3.11-6.9,5.31-2.24,2.2-4.35,4.68-6.35,7.45-2,2.77-3.91,5.6-5.74,8.48-1.83,2.89-3.58,5.68-5.25,8.36-1.67,2.69-3.24,5-4.7,6.96-1.14,0-2.4-.02-3.78-.06-1.38-.04-2.52-.26-3.42-.67-1.14-.41-1.95-1.04-2.44-1.89s-.85-1.69-1.1-2.5c-.24-.81-.41-1.53-.49-2.14-.08-.61-.24-.92-.49-.92-.65,0-1.46.57-2.44,1.71-.98,1.14-1.95,2.61-2.93,4.39-.98,1.79-1.81,3.83-2.5,6.1-.69,2.28-1.04,4.52-1.04,6.71,0,1.87.1,4.05.3,6.53.2,2.48.43,5.07.67,7.75s.47,5.35.67,8c.2,2.65.3,5.07.3,7.26,0,8.3-1.79,16.05-5.37,23.25-3.58,7.2-8.36,13.45-14.34,18.74-5.98,5.29-12.84,9.44-20.57,12.45-7.73,3.01-15.71,4.52-23.93,4.52-5.29,0-10.05-.84-14.28-2.5-4.23-1.67-7.81-4.01-10.74-7.02-2.93-3.01-5.19-6.61-6.77-10.8-1.59-4.19-2.38-8.81-2.38-13.85,0-1.2-.09-5,.92-11.25,1.97-12.18,5.41-17.75,4.37-18.33-1.35-.77-9.3,7.53-12.99,18.6-1.44,4.32-2,8.35-2.62,12.94-.6,4.4-1.22,8.96-.92,14.4.19,3.46.59,10.55,3.89,17.1,6.27,12.45,19.9,16.8,25.52,18.59,12.13,3.87,22.39,2.25,27.49,1.38,2.08-.35,12.11-2.17,23.34-8.9,9.11-5.46,14.92-11.72,17.78-15.12,5.73-6.82,8.46-12.8,12.33-21,3.42-7.24,6.04-14.48,7.87-21.73,1.83-7.24,2.75-14,2.75-20.26,7.81,0,15.14-1.44,21.97-4.33,6.84-2.89,12.82-6.84,17.94-11.84s9.17-10.84,12.15-17.52c2.97-6.67,4.46-13.83,4.46-21.48,0-1.95-.29-3.82-.85-5.62ZM232.96-115.79c-1.42,1.22-3.28,2.4-5.55,3.54-2.28,1.14-4.8,2.18-7.57,3.11-2.77.94-5.54,1.77-8.3,2.5-2.77.73-5.33,1.3-7.69,1.71-2.36.41-4.27.61-5.74.61,1.95-4.23,4.19-7.97,6.71-11.23,1.06-1.38,2.22-2.77,3.48-4.15,1.26-1.38,2.62-2.6,4.09-3.66,1.46-1.06,3.01-1.91,4.64-2.56,1.63-.65,3.34-.98,5.13-.98,1.06,0,2.34.14,3.85.43,1.5.29,2.93.73,4.27,1.34,1.34.61,2.48,1.38,3.42,2.32.94.94,1.4,2.06,1.4,3.36,0,1.22-.71,2.44-2.14,3.66Z"/>
    <text class="st4" transform="translate(-395.81 25.07)"><tspan x="0" y="0">ض</tspan></text>
    <g>
      <path class="st0" d="M195.82-153.4c5.05-.14,11.21-4.08,9.97-5.42-1.24-1.34-6.26-2.75-12.88-.22-7.76,2.97-7.06,11.18-7.06,11.18,0,0,3.56-5.36,9.97-5.54Z"/>
      <path class="st0" d="M196.85-150.53c-5.05.05-11.29,3.87-10.08,5.24,1.21,1.37,6.2,2.86,12.87.46,7.82-2.82,7.29-11.05,7.29-11.05,0,0-3.67,5.29-10.08,5.36Z"/>
    </g>
    <path d="M64.24-59.25c-4.28,1.47-8.5,2.56-12.6,4.36-3.8,1.48-7.3,3.55-10.93,5.39-5.94,2.65-11.68,6.43-12.89,13.31-.79,4.09.65,8.17,2.79,11.61,2.82,5.17,7.3,9.15,12.16,12.41,7,4.95,14.63,7.54,23.41,9.41.48.06.59.79.15.99-13.53,7.26-32.72,1.28-40.2-12.65-1.68-2.9-2.97-5.98-3.44-9.31-.99-7.01,1.76-13.89,4.91-20.01,2.76-5.57,5.83-11.55,11.31-14.88,7.46-4.54,17.57-5.61,25.44-1.61.42.21.36.87-.1,1h0Z"/>
    <g>
      <path d="M149.11-105.71c-4.47,7.88-10.91,5.41-18.33,5.79-4.51.32-10.08.04-12.95,3.79-1.49,2.38-.95,5.68,1.65,7.03,7.39,4.69,31.4,1.55,27.37,15.6,2.48-13.2-21.11-8.37-28.64-13.49-6.13-3.36-4.08-12.15,2.19-13.82,5.23-1.57,10.27-1.15,15.48-.75,5.56.9,9.42.65,13.23-4.14h0Z"/>
      <path d="M152.68-80.17c6.28,2.04,14.15,7.52,12.74,15.13-1.75,5.48-8.36,7.54-13.46,8.34-8.95,1.08-17.35-3.33-24.66-7.89-4.9-2.86-13.98-10.07-15.1.1-.11-11.09,10.73-4.76,16.08-1.8,5.86,3.16,11.91,6.43,18.55,7.12,4.77.54,9.87-.5,13.91-3.08,8.22-5.71-2.03-15.2-8.07-17.92h0Z"/>
      <path d="M149.86-76.69c1.3.64,2.48,1.62,3.28,2.9,1.59,2.55,1.37,6.97-1.78,8.24-4.52,1.38-9.06-.87-13.18-2.33-2.04-.83-6.06-2.63-8.04-3.6-5.28-2.56-10.31-5.71-15.2-8.8-2.45-1.51-4.87-3.05-7.38-3.95-5.4-2.07-14.51.49-16.24,6.37-1.31,15.89,31.77,23.46,43.84,26.38-13.44-1.6-36.3-5.92-44.36-17.72-2.27-3.3-3.75-7.98-1.51-11.76,3.02-4.86,9.05-7.26,14.59-7.1,4.7.14,8.97,2.91,12.65,5.29,6,4.06,12.12,7.9,18.56,11.13,0,0,3.9,1.88,3.9,1.88,3.75,1.58,7.86,3.89,11.94,3.07,1.27-.39,1.98-1.56,2.24-2.84.69-2.81-.9-5.68-3.33-7.17h0Z"/>
    </g>
    <text class="st5" transform="translate(-3 191.73)"><tspan x="0" y="0">Cafe &amp; Study House</tspan></text>
    <circle class="st1" cx="107.52" cy="90.74" r="175"/>
  </g>
</svg>